<?xml version="1.0" encoding="utf-8"?>
<!-- Svg Vector Icons : http://www.onlinewebfonts.com/icon -->
<!DOCTYPE svg PUBLIC "-//W3C//DTD SVG 1.1//EN" "http://www.w3.org/Graphics/SVG/1.1/DTD/svg11.dtd">
<svg version="1.1" xmlns="http://www.w3.org/2000/svg" xmlns:xlink="http://www.w3.org/1999/xlink" x="0px" y="0px" viewBox="0 0 256 256" enable-background="new 0 0 256 256" xml:space="preserve">
<metadata> Svg Vector Icons : http://www.onlinewebfonts.com/icon </metadata>
<g><g><path fill="#000000" d="M216.5,11.4h-177C23.2,11.4,10,24.6,10,40.9v130.7c0,16.3,13.2,34.6,29.5,34.6l19.7,0.2l9.8,38.3l57.5-38.3l90-0.2c16.3,0,29.5-13.2,29.5-29.5V40.9C246,24.6,232.8,11.4,216.5,11.4z M231.1,170.7c0,9.7-8.3,17.6-18.4,17.6l-89.2,0.1l-45.2,28.2l-7.9-28.2l-26.8-0.2c-10.2,0-18.5-12.5-18.5-22.2V46.8c0-9.7,8.2-17.5,18.4-17.5h169.2c10.1,0,18.4,7.9,18.4,17.5L231.1,170.7L231.1,170.7z"/><path fill="#000000" d="M179.3,93.4c-8.5,0-15.4,6.9-15.4,15.4s6.9,15.4,15.4,15.4c8.5,0,15.4-6.9,15.4-15.4C194.7,100.3,187.8,93.4,179.3,93.4z M179.3,114c-2.8,0-5.1-2.3-5.1-5.1c0-2.8,2.3-5.1,5.1-5.1c2.8,0,5.1,2.3,5.1,5.1C184.4,111.7,182.1,114,179.3,114z"/><path fill="#000000" d="M128,93.4c-8.5,0-15.4,6.9-15.4,15.4s6.9,15.4,15.4,15.4c8.5,0,15.4-6.9,15.4-15.4S136.5,93.4,128,93.4z M128,114c-2.8,0-5.1-2.3-5.1-5.1c0-2.8,2.3-5.1,5.1-5.1c2.8,0,5.1,2.3,5.1,5.1C133.1,111.7,130.8,114,128,114z"/><path fill="#000000" d="M76.7,93.4c-8.5,0-15.4,6.9-15.4,15.4s6.9,15.4,15.4,15.4s15.4-6.9,15.4-15.4S85.2,93.4,76.7,93.4z M76.7,114c-2.8,0-5.1-2.3-5.1-5.1c0-2.8,2.3-5.1,5.1-5.1s5.1,2.3,5.1,5.1C81.8,111.7,79.5,114,76.7,114z"/></g></g>
</svg>